<?xml version="1.0" standalone="no"?><!DOCTYPE svg PUBLIC "-//W3C//DTD SVG 1.1//EN" "http://www.w3.org/Graphics/SVG/1.1/DTD/svg11.dtd"><svg t="1670038346828" class="icon" viewBox="0 0 1024 1024" version="1.1" xmlns="http://www.w3.org/2000/svg" p-id="1993" xmlns:xlink="http://www.w3.org/1999/xlink" width="200" height="200"><path d="M727.4 287.7c20.7-50.4 10.5-109.2-30-149.8-50.1-50.1-129.2-53.9-183.7-11.7-109.2-29.7-228.2 1-308.8 81.6-80.7 80.7-111.3 199.6-81.6 308.8C81.2 571.1 85.1 650.1 135 700c40.2 40.2 98.1 50.4 149.5 29.7l442.9-442z" fill="#FFF7E3" p-id="1994"></path><path d="M231.4 755.2c-9.6 0-19.2-0.9-28.6-2.7-29.6-5.7-56.7-20.2-78.3-41.8-53-53-59.9-136.4-17.5-197.2-28.2-113.3 4.9-233.9 87.3-316.3 41.3-41.3 93.3-71.1 150.5-86.1 54.5-14.3 111.6-14.7 165.8-1.3C571.4 67.4 655 74.3 708 127.3c43.7 43.7 56.8 108.9 33.3 166.1-0.8 1.8-1.9 3.5-3.3 4.9l-443 442c-1.4 1.4-3.1 2.5-5 3.3-18.9 7.7-38.8 11.6-58.6 11.6zM430 130.1c-79.5 0-157.1 31.1-214.4 88.4C139 295 109.2 407.8 137.8 512.7c1.2 4.5 0.3 9.4-2.6 13.1-38.1 49.2-33.6 119.5 10.4 163.6 34.5 34.5 84.3 44.9 130.5 27.5l438.5-437.6c17.4-45.3 6.6-96.3-27.8-130.7-44.1-44.1-114.6-48.6-163.9-10.4-3.7 2.9-8.6 3.8-13.1 2.6-26.3-7.2-53.2-10.7-79.8-10.7z" fill="#3F2D26" p-id="1995"></path><path d="M285.9 731.1l320.2 203.8 326.2-326.2-203.5-319.6z" fill="#FBD11A" p-id="1996"></path><path d="M606.1 949.9c-2.8 0-5.6-0.8-8-2.3L277.8 743.8c-3.8-2.4-6.4-6.5-6.9-11s1.1-9 4.3-12.2l443-442.1c3.2-3.2 7.7-4.8 12.2-4.3 4.5 0.5 8.6 3 11 6.9L945 600.6c3.8 5.9 2.9 13.7-2 18.7L616.7 945.5c-2.9 2.9-6.7 4.4-10.6 4.4zM309.7 728.5L604 915.8l309.2-309.2-187-293.7-416.5 415.6z" fill="#3F2D26" p-id="1997"></path><path d="M616.2 804.9l-11 11.1c-9.3 9.3-24.6 9.3-33.9 0L465.6 710.3c-9.3-9.3-9.3-24.6 0-33.9l11.1-11.1c9.3-9.3 24.6-9.3 33.9 0l105.6 105.6c9.4 9.4 9.4 24.6 0 34zM713.8 707.3l-11.1 11.1c-9.3 9.3-24.6 9.3-33.9 0L563.1 612.8c-9.3-9.3-9.3-24.6 0-33.9l11.1-11.1c9.3-9.3 24.6-9.3 33.9 0l105.6 105.6c9.4 9.3 9.4 24.6 0.1 33.9zM811.6 609.6l-11.1 11.1c-9.3 9.3-24.6 9.3-33.9 0L660.9 515c-9.3-9.3-9.3-24.6 0-33.9L672 470c9.3-9.3 24.6-9.3 33.9 0l105.6 105.6c9.4 9.3 9.4 24.6 0.1 34z" fill="#FFBC00" p-id="1998"></path><path d="M686.2 144.5c-45.8-45.8-118-48-167.7-9.5-104-28.7-217.5 6.8-289.7 74.2 67.8-26.3 221.3-74.9 295.5-39.1 0 0 129.4-85.5 189.8 109.9 18.2-45.7 8.8-98.8-27.9-135.5z" fill="#FFEEC7" p-id="1999"></path><path d="M726.7 313.5l-27 27 181.9 297.4 31.5-31.5z" fill="#F2C300" p-id="2000"></path></svg>